<svg xmlns="http://www.w3.org/2000/svg" width="1200" height="627" viewBox="0 0 1200 627">
  <defs>
    <linearGradient id="bg" x1="0" y1="0" x2="1" y2="1">
      <stop offset="0%" stop-color="#05070d"/>
      <stop offset="100%" stop-color="#0a0f18"/>
    </linearGradient>
    <linearGradient id="accent" x1="0" y1="0" x2="1" y2="0">
      <stop offset="0%" stop-color="#ff3c00"/>
      <stop offset="100%" stop-color="#ff7a2f"/>
    </linearGradient>
    <pattern id="grid" width="36" height="36" patternUnits="userSpaceOnUse">
      <path d="M36 0H0V36" fill="none" stroke="rgba(255,255,255,0.06)" stroke-width="1"/>
    </pattern>
  </defs>

  <rect width="1200" height="627" fill="url(#bg)"/>
  <rect width="1200" height="627" fill="url(#grid)" opacity="0.8"/>

  <circle cx="950" cy="180" r="180" fill="rgba(255,60,0,0.08)"/>
  <circle cx="260" cy="520" r="140" fill="rgba(124,58,237,0.12)"/>

  <g fill="none" stroke="rgba(255,255,255,0.12)" stroke-width="2">
    <path d="M120 420 C 280 360, 420 360, 580 420"/>
    <path d="M170 360 C 330 300, 470 300, 630 360"/>
    <path d="M220 300 C 380 240, 520 240, 680 300"/>
  </g>

  <g>
    <rect x="120" y="120" width="560" height="48" rx="24" fill="rgba(255,255,255,0.08)"/>
    <rect x="132" y="132" width="180" height="24" rx="12" fill="url(#accent)"/>
    <rect x="320" y="132" width="120" height="24" rx="12" fill="rgba(255,255,255,0.08)"/>
    <rect x="450" y="132" width="120" height="24" rx="12" fill="rgba(255,255,255,0.08)"/>
    <rect x="580" y="132" width="80" height="24" rx="12" fill="rgba(255,255,255,0.08)"/>
  </g>

  <g font-family="Arial, sans-serif" fill="#f5f5f0">
    <text x="120" y="250" font-size="56" font-weight="700">ERP Lite</text>
    <text x="120" y="295" font-size="22" fill="rgba(245,245,240,0.7)">
      ERP-agnostic floor map demo
    </text>
    <text x="120" y="340" font-size="18" fill="rgba(245,245,240,0.55)">
      Turning black-box ERP data into a readable operational view.
    </text>
  </g>

  <g font-family="Courier New, monospace" font-size="14" fill="rgba(245,245,240,0.6)">
    <text x="120" y="420">Status model</text>
    <text x="120" y="445">Running · Idle · Down · Setup</text>
  </g>

  <g>
    <rect x="120" y="480" width="260" height="40" rx="20" fill="none" stroke="url(#accent)" stroke-width="2"/>
    <text x="150" y="506" font-family="Courier New, monospace" font-size="14" fill="#ff3c00">
      localhousedesigns.netlify.app/lab/erp-lite
    </text>
  </g>

  <g fill="rgba(255,255,255,0.12)">
    <circle cx="770" cy="410" r="6"/>
    <circle cx="820" cy="380" r="8"/>
    <circle cx="870" cy="420" r="5"/>
    <circle cx="920" cy="360" r="10"/>
    <circle cx="1000" cy="420" r="7"/>
  </g>
</svg>
